Coordinates
version=1
nRows=11
nColumns=63
inDegrees=yes

Units are S.I. units (second, meters, Newtons, ...)
If the header above contains a line with 'inDegrees', this indicates whether rotational values are in degrees (yes) or radians (no).

endheader
time	pelvis_tilt	pelvis_list	pelvis_rotation	pelvis_tx	pelvis_ty	pelvis_tz	hip_flexion_r	hip_adduction_r	hip_rotation_r	knee_angle_r	knee_angle_r_beta	ankle_angle_r	subtalar_angle_r	mtp_angle_r	hip_flexion_l	hip_adduction_l	hip_rotation_l	knee_angle_l	knee_angle_l_beta	ankle_angle_l	subtalar_angle_l	mtp_angle_l	L5_S1_Flex_Ext	L5_S1_Lat_Bending	L5_S1_axial_rotation	L4_L5_Flex_Ext	L4_L5_Lat_Bending	L4_L5_axial_rotation	L3_L4_Flex_Ext	L3_L4_Lat_Bending	L3_L4_axial_rotation	L2_L3_Flex_Ext	L2_L3_Lat_Bending	L2_L3_axial_rotation	L1_L2_Flex_Ext	L1_L2_Lat_Bending	L1_L2_axial_rotation	L1_T12_Flex_Ext	L1_T12_Lat_Bending	L1_T12_axial_rotation	Abs_r3	Abs_r2	Abs_r1	Abs_t1	Abs_t2	neck_flexion	neck_bending	neck_rotation	arm_flex_r	arm_add_r	arm_rot_r	elbow_flex_r	pro_sup_r	wrist_flex_r	wrist_dev_r	arm_flex_l	arm_add_l	arm_rot_l	elbow_flex_l	pro_sup_l	wrist_flex_l	wrist_dev_l
2.830508	-0.899563	-19.462628	81.440339	0.260275	0.958396	0.629102	21.203262	-0.453122	-1.617025	1.742268	0.030408	21.526361	4.954799	0.000000	20.828789	-0.607413	9.997487	5.274646	0.092060	11.317181	-4.600937	0.000000	-0.272089	-0.484607	0.121467	-0.505297	-0.644528	0.129059	-0.447016	-1.178274	0.129059	-0.310971	-1.178274	0.106284	-0.252662	-0.988211	0.098692	-0.155472	-0.750657	0.091101	-1.943508	-5.481974	0.675565	0.000000	0.000000	7.746070	4.115410	-1.829308	70.430815	6.900206	3.651903	80.530332	86.918408	-17.681724	-3.357688	73.340342	-0.122687	19.348595	83.080888	88.307547	-13.395476	-5.364795
2.847458	-1.134917	-19.708217	81.253346	0.261010	0.958270	0.629143	21.451878	-0.589822	-1.154134	1.585392	0.027670	22.107193	5.617205	0.000000	21.072139	-0.469841	10.653402	5.196734	0.090700	11.095658	-4.548032	0.000000	-0.266325	-0.529076	0.298414	-0.494592	-0.703671	0.317065	-0.437545	-1.286395	0.317065	-0.304382	-1.286395	0.261112	-0.247309	-1.078891	0.242461	-0.152178	-0.819538	0.223810	-1.902331	-5.985011	1.659689	0.000000	0.000000	8.282097	4.187580	-3.215299	71.053136	6.209962	4.053086	80.179822	87.083261	-16.986596	-2.851200	73.662447	0.183378	19.115425	82.315980	88.292809	-12.937118	-6.065557
2.864407	-1.431373	-19.973303	81.063718	0.261729	0.958245	0.629229	21.742718	-0.786941	-0.649067	1.413543	0.024671	22.862782	6.321857	0.000000	21.355290	-0.275514	11.170012	5.029570	0.087783	11.352325	-4.390438	0.000000	-0.256568	-0.580336	0.492302	-0.476473	-0.771847	0.523071	-0.421516	-1.411029	0.523071	-0.293232	-1.411029	0.430764	-0.238249	-1.183421	0.399995	-0.146603	-0.898940	0.369227	-1.832643	-6.564876	2.738037	0.000000	0.000000	8.803104	4.281909	-4.612119	71.661641	5.391091	4.677866	79.948573	87.276067	-16.049859	-2.207626	73.849369	0.494036	18.776227	81.605923	88.285511	-12.597558	-7.066983
2.881356	-1.775241	-20.251888	80.898552	0.262356	0.958325	0.629336	22.066176	-1.043535	-0.119314	1.232459	0.021510	23.776655	7.042980	0.000000	21.672626	-0.027513	11.483741	4.782420	0.083469	12.058430	-4.061282	0.000000	-0.242647	-0.636688	0.686325	-0.450620	-0.846796	0.729220	-0.398645	-1.548044	0.729220	-0.277322	-1.548044	0.600534	-0.225322	-1.298335	0.557639	-0.138649	-0.986230	0.514744	-1.733206	-7.202348	3.817134	0.000000	0.000000	9.285920	4.433871	-5.895741	72.208020	4.480343	5.512904	79.849333	87.488760	-14.995563	-1.477222	73.882336	0.790202	18.336350	81.019055	88.288141	-12.347527	-8.135772
2.898305	-2.110918	-20.545525	80.810208	0.262757	0.958499	0.629423	22.412162	-1.328556	0.230497	1.053531	0.018388	24.805466	7.914612	0.000000	22.031592	0.231959	11.335161	4.483583	0.078253	13.282743	-3.173652	0.000000	-0.223817	-0.689750	0.861345	-0.415650	-0.917368	0.915179	-0.367709	-1.677058	0.915179	-0.255800	-1.677058	0.753677	-0.207836	-1.406538	0.699843	-0.127889	-1.068423	0.646009	-1.598701	-7.802591	4.790543	0.000000	0.000000	9.688324	4.606363	-6.913225	72.654574	3.529512	6.521925	79.880360	87.711639	-13.836809	-0.660970	73.731643	1.060261	17.787069	80.598310	88.295143	-12.148701	-9.189183
2.915254	-2.415258	-20.858468	80.796331	0.262944	0.958732	0.629454	22.779807	-1.613313	0.430871	0.883638	0.015422	25.863507	8.761738	0.000000	22.422362	0.484966	10.891566	4.128351	0.072053	14.909364	-2.017840	0.000000	-0.198868	-0.737221	1.012254	-0.369318	-0.980504	1.075520	-0.326721	-1.792480	1.075520	-0.227286	-1.792480	0.885722	-0.184669	-1.503341	0.822457	-0.113633	-1.141956	0.759191	-1.420495	-8.339593	5.629854	0.000000	0.000000	10.030247	4.791271	-7.611871	72.937286	2.593702	7.597504	80.068474	87.952963	-12.629700	0.183386	73.409725	1.319435	17.199720	80.336170	88.282261	-12.079756	-10.226289
2.932203	-2.760052	-21.142248	80.785389	0.263125	0.959061	0.629319	23.117439	-1.938079	0.668101	0.721649	0.012595	26.879973	9.436064	0.000000	22.755228	0.767173	10.036005	3.677188	0.064179	16.802190	-0.455605	0.000000	-0.172160	-0.794413	1.143706	-0.319718	-1.056570	1.215187	-0.282841	-1.931536	1.215187	-0.196761	-1.931536	1.000742	-0.159868	-1.619968	0.929261	-0.098372	-1.230546	0.857779	-1.229720	-8.986562	6.360947	0.000000	0.000000	10.299045	5.141259	-8.269062	72.967124	1.706025	8.545416	80.456228	88.190452	-11.351812	0.967657	72.964739	1.578816	16.680387	80.159204	88.267876	-11.901660	-11.275965
2.949153	-3.015390	-21.424021	80.865882	0.263037	0.959386	0.629020	23.443738	-2.217459	0.640433	0.613889	0.010714	27.814898	10.097954	0.000000	23.081334	0.995725	8.975561	3.223862	0.056267	18.945769	1.346377	0.000000	-0.141432	-0.837309	1.236394	-0.262654	-1.113621	1.313668	-0.232359	-2.035832	1.313668	-0.161643	-2.035832	1.081844	-0.131334	-1.707440	1.004570	-0.080814	-1.296991	0.927295	-1.010237	-9.471804	6.876450	0.000000	0.000000	10.507827	5.442382	-8.465371	72.789172	0.932203	9.438676	80.996236	88.410632	-10.143506	1.713084	72.331063	1.826223	16.171392	80.195374	88.252720	-11.816824	-12.242281
2.966102	-3.190579	-21.699985	81.041827	0.262717	0.959685	0.628585	23.761193	-2.459884	0.325913	0.585336	0.010216	28.588833	10.677952	0.000000	23.406562	1.176021	7.698509	2.824552	0.049298	21.148941	3.399679	0.000000	-0.108073	-0.867005	1.281181	-0.200702	-1.153117	1.361255	-0.177553	-2.108037	1.361255	-0.123516	-2.108037	1.121034	-0.100356	-1.767997	1.040960	-0.061753	-1.342991	0.960886	-0.771952	-9.807737	7.125546	0.000000	0.000000	10.697849	5.662289	-8.169080	72.411052	0.332616	10.229060	81.648589	88.593908	-9.054476	2.267550	71.546763	2.010332	15.737302	80.450190	88.233781	-11.882967	-13.191345
2.983051	-3.231438	-21.960235	81.336637	0.262088	0.959917	0.627946	24.038849	-2.621130	-0.129718	0.630496	0.011004	29.152809	10.941452	0.000000	23.698059	1.298993	6.938694	2.497528	0.043590	23.066305	4.691651	0.000000	-0.073570	-0.874131	1.274030	-0.136627	-1.162594	1.353657	-0.120868	-2.125362	1.353657	-0.084083	-2.125362	1.114777	-0.068317	-1.782528	1.035150	-0.042038	-1.354029	0.955523	-0.525504	-9.888345	7.085775	0.000000	0.000000	10.875662	5.702396	-7.262802	71.856088	-0.075101	10.945771	82.394437	88.706416	-8.143600	2.627702	70.610619	2.129363	15.374801	80.945956	88.204418	-12.228431	-14.135147
3.000000	-3.131768	-22.204545	81.733085	0.261197	0.960049	0.627161	24.285303	-2.689714	-0.807800	0.771399	0.013463	29.511705	11.037402	0.000000	23.976932	1.334555	6.328270	2.325212	0.040583	24.650513	5.710121	0.000000	-0.039800	-0.858479	1.218504	-0.073913	-1.141777	1.294660	-0.065388	-2.087306	1.294660	-0.045487	-2.087306	1.066191	-0.036958	-1.750611	0.990034	-0.022742	-1.329784	0.913878	-0.284288	-9.711288	6.776954	0.000000	0.000000	11.084717	5.529570	-5.810960	71.153706	-0.296283	11.590167	83.220135	88.748417	-7.414424	2.808411	69.551995	2.190011	15.066217	81.699146	88.173429	-12.830157	-14.985556
